<svg width="113" height="90" viewBox="0 0 113 90" fill="none" xmlns="http://www.w3.org/2000/svg">
<g filter="url(#filter0_d)">
<path d="M20 21.9196C20 18.8241 22.7843 16.4723 25.8362 16.99L63.0703 23.3061L100.304 16.99C103.356 16.4723 106.141 18.824 106.141 21.9196V66.8828C106.141 69.4176 104.244 71.5513 101.727 71.8483L63.0703 76.4091L24.4142 71.8483C21.8968 71.5513 20 69.4176 20 66.8828V21.9196Z" fill="#3047C8"/>
</g>
<g filter="url(#filter1_d)">
<path d="M21.4886 20.1278C21.4886 20.1278 33.2949 21.0609 39.8732 21.6442C46.4514 22.2274 63.0702 24.5927 63.0702 24.5927V74.4833C63.0702 74.4833 56.1111 73.0059 39.8732 71.334C23.6352 69.6621 21.4886 70.0185 21.4886 70.0185L21.4886 20.1278Z" fill="white"/>
<path d="M21.4886 20.1278C21.4886 20.1278 33.2949 21.0609 39.8732 21.6442C46.4514 22.2274 63.0702 24.5927 63.0702 24.5927V74.4833C63.0702 74.4833 56.1111 73.0059 39.8732 71.334C23.6352 69.6621 21.4886 70.0185 21.4886 70.0185L21.4886 20.1278Z" fill="white"/>
</g>
<g filter="url(#filter2_d)">
<path d="M24.4315 18.6439C24.4315 18.6439 36.3416 20.2154 42.816 21.3656C49.2904 22.5158 63.0702 24.5927 63.0702 24.5927V74.4833C63.0702 74.4833 55.1416 72.2671 43.4739 70.7119C31.8061 69.1566 24.4315 68.5345 24.4315 68.5345L24.4315 18.6439Z" fill="white"/>
<path d="M24.4315 18.6439C24.4315 18.6439 36.3416 20.2154 42.816 21.3656C49.2904 22.5158 63.0702 24.5927 63.0702 24.5927V74.4833C63.0702 74.4833 55.1416 72.2671 43.4739 70.7119C31.8061 69.1566 24.4315 68.5345 24.4315 68.5345L24.4315 18.6439Z" fill="white"/>
</g>
<g filter="url(#filter3_d)">
<path d="M27.3745 17.4386C27.3745 17.4386 39.2846 19.0101 45.759 20.1603C52.2334 21.3105 63.0703 24.5927 63.0703 24.5927V74.4833C63.0703 74.4833 52.1988 71.2498 45.759 70.0445C39.3193 68.8392 27.3745 67.3292 27.3745 67.3292L27.3745 17.4386Z" fill="white"/>
<path d="M27.3745 17.4386C27.3745 17.4386 39.2846 19.0101 45.759 20.1603C52.2334 21.3105 63.0703 24.5927 63.0703 24.5927V74.4833C63.0703 74.4833 52.1988 71.2498 45.759 70.0445C39.3193 68.8392 27.3745 67.3292 27.3745 67.3292L27.3745 17.4386Z" fill="white"/>
</g>
<g filter="url(#filter4_d)">
<path d="M104.617 20.1278C104.617 20.1278 92.8109 21.0609 86.2327 21.6442C79.6544 22.2274 63.0356 24.5927 63.0356 24.5927V74.4833C63.0356 74.4833 69.9947 73.0059 86.2327 71.334C102.471 69.6621 104.617 70.0185 104.617 70.0185L104.617 20.1278Z" fill="white"/>
<path d="M104.617 20.1278C104.617 20.1278 92.8109 21.0609 86.2327 21.6442C79.6544 22.2274 63.0356 24.5927 63.0356 24.5927V74.4833C63.0356 74.4833 69.9947 73.0059 86.2327 71.334C102.471 69.6621 104.617 70.0185 104.617 70.0185L104.617 20.1278Z" fill="white"/>
</g>
<g filter="url(#filter5_d)">
<path d="M101.674 18.6439C101.674 18.6439 89.7641 20.2154 83.2897 21.3656C76.8153 22.5158 63.0356 24.5927 63.0356 24.5927V74.4833C63.0356 74.4833 70.9641 72.2671 82.6319 70.7119C94.2997 69.1566 101.674 68.5345 101.674 68.5345L101.674 18.6439Z" fill="white"/>
<path d="M101.674 18.6439C101.674 18.6439 89.7641 20.2154 83.2897 21.3656C76.8153 22.5158 63.0356 24.5927 63.0356 24.5927V74.4833C63.0356 74.4833 70.9641 72.2671 82.6319 70.7119C94.2997 69.1566 101.674 68.5345 101.674 68.5345L101.674 18.6439Z" fill="white"/>
</g>
<g filter="url(#filter6_d)">
<path d="M98.7314 17.4386C98.7314 17.4386 86.8213 19.0101 80.3469 20.1603C73.8725 21.3105 63.0356 24.5927 63.0356 24.5927V74.4833C63.0356 74.4833 73.9071 71.2498 80.3469 70.0445C86.7866 68.8392 98.7314 67.3292 98.7314 67.3292L98.7314 17.4386Z" fill="white"/>
<path d="M98.7314 17.4386C98.7314 17.4386 86.8213 19.0101 80.3469 20.1603C73.8725 21.3105 63.0356 24.5927 63.0356 24.5927V74.4833C63.0356 74.4833 73.9071 71.2498 80.3469 70.0445C86.7866 68.8392 98.7314 67.3292 98.7314 67.3292L98.7314 17.4386Z" fill="white"/>
</g>
<g filter="url(#filter7_d)">
<path d="M63.0217 24.5852V74.5083" stroke="black" stroke-opacity="0.14"/>
</g>
<defs>
<filter id="filter0_d" x="0" y="0.918304" width="126.141" height="99.4907" filterUnits="userSpaceOnUse" color-interpolation-filters="sRGB">
<feFlood flood-opacity="0" result="BackgroundImageFix"/>
<feColorMatrix in="SourceAlpha" type="matrix" values="0 0 0 0 0 0 0 0 0 0 0 0 0 0 0 0 0 0 127 0"/>
<feOffset dy="4"/>
<feGaussianBlur stdDeviation="10"/>
<feColorMatrix type="matrix" values="0 0 0 0 0 0 0 0 0 0 0 0 0 0 0 0 0 0 0.25 0"/>
<feBlend mode="normal" in2="BackgroundImageFix" result="effect1_dropShadow"/>
<feBlend mode="normal" in="SourceGraphic" in2="effect1_dropShadow" result="shape"/>
</filter>
<filter id="filter1_d" x="20.4886" y="20.1278" width="43.5816" height="56.3555" filterUnits="userSpaceOnUse" color-interpolation-filters="sRGB">
<feFlood flood-opacity="0" result="BackgroundImageFix"/>
<feColorMatrix in="SourceAlpha" type="matrix" values="0 0 0 0 0 0 0 0 0 0 0 0 0 0 0 0 0 0 127 0"/>
<feOffset dy="1"/>
<feGaussianBlur stdDeviation="0.5"/>
<feColorMatrix type="matrix" values="0 0 0 0 0 0 0 0 0 0 0 0 0 0 0 0 0 0 0.25 0"/>
<feBlend mode="normal" in2="BackgroundImageFix" result="effect1_dropShadow"/>
<feBlend mode="normal" in="SourceGraphic" in2="effect1_dropShadow" result="shape"/>
</filter>
<filter id="filter2_d" x="23.4315" y="18.6439" width="40.6387" height="57.8394" filterUnits="userSpaceOnUse" color-interpolation-filters="sRGB">
<feFlood flood-opacity="0" result="BackgroundImageFix"/>
<feColorMatrix in="SourceAlpha" type="matrix" values="0 0 0 0 0 0 0 0 0 0 0 0 0 0 0 0 0 0 127 0"/>
<feOffset dy="1"/>
<feGaussianBlur stdDeviation="0.5"/>
<feColorMatrix type="matrix" values="0 0 0 0 0 0 0 0 0 0 0 0 0 0 0 0 0 0 0.25 0"/>
<feBlend mode="normal" in2="BackgroundImageFix" result="effect1_dropShadow"/>
<feBlend mode="normal" in="SourceGraphic" in2="effect1_dropShadow" result="shape"/>
</filter>
<filter id="filter3_d" x="26.3745" y="17.4386" width="37.6958" height="59.0447" filterUnits="userSpaceOnUse" color-interpolation-filters="sRGB">
<feFlood flood-opacity="0" result="BackgroundImageFix"/>
<feColorMatrix in="SourceAlpha" type="matrix" values="0 0 0 0 0 0 0 0 0 0 0 0 0 0 0 0 0 0 127 0"/>
<feOffset dy="1"/>
<feGaussianBlur stdDeviation="0.5"/>
<feColorMatrix type="matrix" values="0 0 0 0 0 0 0 0 0 0 0 0 0 0 0 0 0 0 0.25 0"/>
<feBlend mode="normal" in2="BackgroundImageFix" result="effect1_dropShadow"/>
<feBlend mode="normal" in="SourceGraphic" in2="effect1_dropShadow" result="shape"/>
</filter>
<filter id="filter4_d" x="62.0356" y="20.1278" width="43.5816" height="56.3555" filterUnits="userSpaceOnUse" color-interpolation-filters="sRGB">
<feFlood flood-opacity="0" result="BackgroundImageFix"/>
<feColorMatrix in="SourceAlpha" type="matrix" values="0 0 0 0 0 0 0 0 0 0 0 0 0 0 0 0 0 0 127 0"/>
<feOffset dy="1"/>
<feGaussianBlur stdDeviation="0.5"/>
<feColorMatrix type="matrix" values="0 0 0 0 0 0 0 0 0 0 0 0 0 0 0 0 0 0 0.25 0"/>
<feBlend mode="normal" in2="BackgroundImageFix" result="effect1_dropShadow"/>
<feBlend mode="normal" in="SourceGraphic" in2="effect1_dropShadow" result="shape"/>
</filter>
<filter id="filter5_d" x="62.0356" y="18.6439" width="40.6387" height="57.8394" filterUnits="userSpaceOnUse" color-interpolation-filters="sRGB">
<feFlood flood-opacity="0" result="BackgroundImageFix"/>
<feColorMatrix in="SourceAlpha" type="matrix" values="0 0 0 0 0 0 0 0 0 0 0 0 0 0 0 0 0 0 127 0"/>
<feOffset dy="1"/>
<feGaussianBlur stdDeviation="0.5"/>
<feColorMatrix type="matrix" values="0 0 0 0 0 0 0 0 0 0 0 0 0 0 0 0 0 0 0.25 0"/>
<feBlend mode="normal" in2="BackgroundImageFix" result="effect1_dropShadow"/>
<feBlend mode="normal" in="SourceGraphic" in2="effect1_dropShadow" result="shape"/>
</filter>
<filter id="filter6_d" x="62.0356" y="17.4386" width="37.6958" height="59.0447" filterUnits="userSpaceOnUse" color-interpolation-filters="sRGB">
<feFlood flood-opacity="0" result="BackgroundImageFix"/>
<feColorMatrix in="SourceAlpha" type="matrix" values="0 0 0 0 0 0 0 0 0 0 0 0 0 0 0 0 0 0 127 0"/>
<feOffset dy="1"/>
<feGaussianBlur stdDeviation="0.5"/>
<feColorMatrix type="matrix" values="0 0 0 0 0 0 0 0 0 0 0 0 0 0 0 0 0 0 0.25 0"/>
<feBlend mode="normal" in2="BackgroundImageFix" result="effect1_dropShadow"/>
<feBlend mode="normal" in="SourceGraphic" in2="effect1_dropShadow" result="shape"/>
</filter>
<filter id="filter7_d" x="58.5217" y="21.5852" width="9" height="57.9231" filterUnits="userSpaceOnUse" color-interpolation-filters="sRGB">
<feFlood flood-opacity="0" result="BackgroundImageFix"/>
<feColorMatrix in="SourceAlpha" type="matrix" values="0 0 0 0 0 0 0 0 0 0 0 0 0 0 0 0 0 0 127 0"/>
<feOffset dy="1"/>
<feGaussianBlur stdDeviation="2"/>
<feColorMatrix type="matrix" values="0 0 0 0 0 0 0 0 0 0 0 0 0 0 0 0 0 0 0.3 0"/>
<feBlend mode="normal" in2="BackgroundImageFix" result="effect1_dropShadow"/>
<feBlend mode="normal" in="SourceGraphic" in2="effect1_dropShadow" result="shape"/>
</filter>
</defs>
</svg>
