<svg width="111" height="49" viewBox="0 0 111 49" fill="none" xmlns="http://www.w3.org/2000/svg">
<path d="M49.5557 29.3045V31.6072H51.3311V32.8641H49.5557V38.7615C49.5557 39.1424 49.6348 39.4295 49.793 39.6229C49.9512 39.8104 50.2207 39.9041 50.6016 39.9041C50.7891 39.9041 51.0469 39.869 51.375 39.7986V41.117C50.9473 41.2342 50.5312 41.2928 50.127 41.2928C49.4004 41.2928 48.8525 41.0731 48.4834 40.6336C48.1143 40.1942 47.9297 39.5701 47.9297 38.7615V32.8641H46.1982V31.6072H47.9297V29.3045H49.5557ZM54.8643 32.7586C55.585 31.8738 56.5225 31.4315 57.6768 31.4315C59.6865 31.4315 60.7002 32.5652 60.7178 34.8328V41.117H59.0918V34.824C59.0859 34.1385 58.9277 33.6317 58.6172 33.3035C58.3125 32.9754 57.835 32.8113 57.1846 32.8113C56.6572 32.8113 56.1943 32.952 55.7959 33.2332C55.3975 33.5145 55.0869 33.8836 54.8643 34.3406V41.117H53.2383V27.617H54.8643V32.7586ZM67.0986 41.2928C65.8096 41.2928 64.7607 40.8709 63.9521 40.0272C63.1436 39.1776 62.7393 38.0438 62.7393 36.6258V36.327C62.7393 35.3836 62.918 34.5428 63.2754 33.8045C63.6387 33.0604 64.1426 32.4803 64.7871 32.0643C65.4375 31.6424 66.1406 31.4315 66.8965 31.4315C68.1328 31.4315 69.0938 31.8387 69.7793 32.6531C70.4648 33.4676 70.8076 34.6336 70.8076 36.1512V36.8279H64.3652C64.3887 37.7654 64.6611 38.5242 65.1826 39.1043C65.71 39.6785 66.3779 39.9656 67.1865 39.9656C67.7607 39.9656 68.2471 39.8484 68.6455 39.6141C69.0439 39.3797 69.3926 39.0692 69.6914 38.6824L70.6846 39.4559C69.8877 40.6805 68.6924 41.2928 67.0986 41.2928ZM66.8965 32.7674C66.2402 32.7674 65.6895 33.0076 65.2441 33.4881C64.7988 33.9627 64.5234 34.6307 64.418 35.492H69.1816V35.369C69.1348 34.5428 68.9121 33.9041 68.5137 33.4529C68.1152 32.9959 67.5762 32.7674 66.8965 32.7674ZM85.1953 36.4676C85.1953 37.9149 84.8643 39.0809 84.2021 39.9656C83.54 40.8504 82.6436 41.2928 81.5127 41.2928C80.3584 41.2928 79.4502 40.9266 78.7881 40.1942V44.7733H77.1621V31.6072H78.6475L78.7266 32.6619C79.3887 31.8416 80.3086 31.4315 81.4863 31.4315C82.6289 31.4315 83.5312 31.8621 84.1934 32.7234C84.8613 33.5848 85.1953 34.783 85.1953 36.3182V36.4676ZM83.5693 36.283C83.5693 35.2108 83.3408 34.3641 82.8838 33.743C82.4268 33.1219 81.7998 32.8113 81.0029 32.8113C80.0186 32.8113 79.2803 33.2479 78.7881 34.1209V38.6649C79.2744 39.532 80.0186 39.9656 81.0205 39.9656C81.7998 39.9656 82.418 39.658 82.875 39.0428C83.3379 38.4217 83.5693 37.5018 83.5693 36.283ZM93.1406 41.117C93.0469 40.9295 92.9707 40.5955 92.9121 40.1151C92.1562 40.9002 91.2539 41.2928 90.2051 41.2928C89.2676 41.2928 88.4971 41.0291 87.8936 40.5018C87.2959 39.9686 86.9971 39.2947 86.9971 38.4803C86.9971 37.4901 87.3721 36.7225 88.1221 36.1776C88.8779 35.6268 89.9385 35.3514 91.3037 35.3514H92.8857V34.6043C92.8857 34.0359 92.7158 33.5848 92.376 33.2508C92.0361 32.9109 91.5352 32.741 90.873 32.741C90.293 32.741 89.8066 32.8875 89.4141 33.1805C89.0215 33.4734 88.8252 33.8279 88.8252 34.244H87.1904C87.1904 33.7693 87.3574 33.3123 87.6914 32.8729C88.0312 32.4276 88.4883 32.076 89.0625 31.8182C89.6426 31.5604 90.2783 31.4315 90.9697 31.4315C92.0654 31.4315 92.9238 31.7068 93.5449 32.2576C94.166 32.8026 94.4883 33.5555 94.5117 34.5164V38.8934C94.5117 39.7664 94.623 40.4608 94.8457 40.9764V41.117H93.1406ZM90.4424 39.8777C90.9521 39.8777 91.4355 39.7459 91.8926 39.4822C92.3496 39.2186 92.6807 38.8758 92.8857 38.4539V36.5027H91.6113C89.6191 36.5027 88.623 37.0858 88.623 38.2518C88.623 38.7615 88.793 39.16 89.1328 39.4471C89.4727 39.7342 89.9092 39.8777 90.4424 39.8777ZM102.598 38.5945C102.598 38.1551 102.431 37.8152 102.097 37.575C101.769 37.3289 101.191 37.118 100.365 36.9422C99.5449 36.7664 98.8916 36.5555 98.4053 36.3094C97.9248 36.0633 97.5674 35.7703 97.333 35.4305C97.1045 35.0906 96.9902 34.6863 96.9902 34.2176C96.9902 33.4383 97.3184 32.7791 97.9746 32.2401C98.6367 31.701 99.4805 31.4315 100.506 31.4315C101.584 31.4315 102.457 31.7098 103.125 32.2664C103.799 32.8231 104.136 33.535 104.136 34.4022H102.501C102.501 33.9568 102.311 33.5731 101.93 33.2508C101.555 32.9285 101.08 32.7674 100.506 32.7674C99.9141 32.7674 99.4512 32.8963 99.1172 33.1541C98.7832 33.4119 98.6162 33.7488 98.6162 34.1649C98.6162 34.5574 98.7715 34.8533 99.082 35.0526C99.3926 35.2518 99.9521 35.4422 100.761 35.6238C101.575 35.8055 102.234 36.0223 102.738 36.2742C103.242 36.5262 103.614 36.8309 103.854 37.1883C104.101 37.5399 104.224 37.9705 104.224 38.4803C104.224 39.3299 103.884 40.0125 103.204 40.5281C102.524 41.0379 101.643 41.2928 100.559 41.2928C99.7969 41.2928 99.123 41.158 98.5371 40.8885C97.9512 40.619 97.4912 40.244 97.1572 39.7635C96.8291 39.2772 96.665 38.7527 96.665 38.1902H98.291C98.3203 38.7352 98.5371 39.1688 98.9414 39.491C99.3516 39.8074 99.8906 39.9656 100.559 39.9656C101.174 39.9656 101.666 39.8426 102.035 39.5965C102.41 39.3445 102.598 39.0106 102.598 38.5945ZM108.548 29.3045V31.6072H110.323V32.8641H108.548V38.7615C108.548 39.1424 108.627 39.4295 108.785 39.6229C108.943 39.8104 109.213 39.9041 109.594 39.9041C109.781 39.9041 110.039 39.869 110.367 39.7986V41.117C109.939 41.2342 109.523 41.2928 109.119 41.2928C108.393 41.2928 107.845 41.0731 107.476 40.6336C107.106 40.1942 106.922 39.5701 106.922 38.7615V32.8641H105.19V31.6072H106.922V29.3045H108.548Z" fill="#3E3E3E"/>
<path d="M10.4638 19.7502L12.5758 16.7022C13.7278 17.5182 14.7198 18.0942 15.5518 18.4302C16.3838 18.7662 17.2078 18.9342 18.0238 18.9342C18.9038 18.9342 19.5998 18.7742 20.1118 18.4542C20.6238 18.1182 20.8798 17.6942 20.8798 17.1822C20.8798 16.6862 20.7118 16.3102 20.3758 16.0542C20.0558 15.7982 19.4878 15.5902 18.6718 15.4302L15.0958 14.8062C13.7678 14.5502 12.7438 14.0302 12.0238 13.2462C11.3198 12.4622 10.9678 11.4862 10.9678 10.3182C10.9678 8.7022 11.5598 7.4142 12.7438 6.4542C13.9278 5.4942 15.5598 5.0142 17.6398 5.0142C18.9358 5.0142 20.1918 5.2142 21.4078 5.6142C22.6238 5.9982 23.6638 6.5342 24.5278 7.2222L22.4398 10.2222C21.6238 9.5982 20.7998 9.1342 19.9678 8.8302C19.1518 8.5262 18.3038 8.3742 17.4238 8.3742C16.6078 8.3742 15.9758 8.5262 15.5278 8.8302C15.0798 9.1342 14.8558 9.5102 14.8558 9.9582C14.8558 10.3742 14.9998 10.7022 15.2878 10.9422C15.5918 11.1822 16.0798 11.3582 16.7518 11.4702L20.1118 12.0462C21.6798 12.3182 22.8718 12.8622 23.6878 13.6782C24.5038 14.4782 24.9118 15.5182 24.9118 16.7982C24.9118 18.4142 24.2638 19.7342 22.9678 20.7582C21.6718 21.7822 19.9278 22.2942 17.7358 22.2942C16.4078 22.2942 15.1358 22.0782 13.9198 21.6462C12.7198 21.1982 11.5678 20.5662 10.4638 19.7502ZM35.8144 18.5982C36.5664 18.5982 37.2624 18.4222 37.9024 18.0702C38.5424 17.7182 39.1264 17.1982 39.6544 16.5102L42.3664 19.0782C41.6304 20.0382 40.6544 20.8142 39.4384 21.4062C38.2224 21.9982 36.9664 22.2942 35.6704 22.2942C34.4224 22.2942 33.2544 22.0702 32.1664 21.6222C31.0784 21.1742 30.1424 20.5662 29.3584 19.7982C28.5744 19.0302 27.9504 18.1182 27.4864 17.0622C27.0384 16.0062 26.8144 14.8702 26.8144 13.6542C26.8144 12.4382 27.0384 11.3022 27.4864 10.2462C27.9504 9.1742 28.5744 8.2542 29.3584 7.4862C30.1584 6.7182 31.0944 6.1102 32.1664 5.6622C33.2544 5.2142 34.4224 4.9902 35.6704 4.9902C37.0144 4.9902 38.3024 5.2862 39.5344 5.8782C40.7664 6.4702 41.7504 7.2622 42.4864 8.2542L39.7024 10.8942C39.1584 10.1582 38.5424 9.6062 37.8544 9.2382C37.1824 8.8542 36.4544 8.6622 35.6704 8.6622C35.0144 8.6622 34.4064 8.7902 33.8464 9.0462C33.2864 9.3022 32.7984 9.6542 32.3824 10.1022C31.9824 10.5342 31.6624 11.0622 31.4224 11.6862C31.1984 12.2942 31.0864 12.9502 31.0864 13.6542C31.0864 14.3582 31.2064 15.0142 31.4464 15.6222C31.6864 16.2302 32.0144 16.7582 32.4304 17.2062C32.8624 17.6382 33.3664 17.9822 33.9424 18.2382C34.5184 18.4782 35.1424 18.5982 35.8144 18.5982ZM44.8798 22.0542V5.2542H53.0398C53.9038 5.2542 54.6958 5.3902 55.4158 5.6622C56.1518 5.9182 56.7758 6.2862 57.2878 6.7662C57.8158 7.2302 58.2238 7.7902 58.5118 8.4462C58.8158 9.1022 58.9678 9.8222 58.9678 10.6062C58.9678 11.6622 58.6798 12.6062 58.1038 13.4382C57.5438 14.2702 56.7918 14.8942 55.8478 15.3102L59.3758 22.0542H54.7678L51.7198 15.8862H49.0078V22.0542H44.8798ZM52.6558 8.6622H49.0078V12.6462H52.6558C53.2958 12.6462 53.8078 12.4622 54.1918 12.0942C54.5918 11.7262 54.7918 11.2462 54.7918 10.6542C54.7918 10.0622 54.5918 9.5822 54.1918 9.2142C53.8078 8.8462 53.2958 8.6622 52.6558 8.6622ZM60.1652 22.0542L66.7172 5.2542H71.4212L77.8772 22.0542H73.4132L72.0212 18.0462H65.8772L64.4612 22.0542H60.1652ZM67.0052 14.8542H70.9172L68.9732 9.2862L67.0052 14.8542ZM79.8017 22.0542V5.2542H88.0097C88.9057 5.2542 89.7137 5.3982 90.4337 5.6862C91.1697 5.9582 91.7937 6.3422 92.3057 6.8382C92.8337 7.3182 93.2337 7.9022 93.5057 8.5902C93.7937 9.2622 93.9377 9.9982 93.9377 10.7982C93.9377 11.5502 93.7937 12.2622 93.5057 12.9342C93.2337 13.5902 92.8337 14.1582 92.3057 14.6382C91.7937 15.1182 91.1697 15.5022 90.4337 15.7902C89.7137 16.0622 88.9057 16.1982 88.0097 16.1982H83.9297V22.0542H79.8017ZM87.2897 8.6622H83.9297V12.9102H87.2657C88.0977 12.9102 88.7217 12.7102 89.1377 12.3102C89.5537 11.8942 89.7617 11.3822 89.7617 10.7742C89.7617 10.1822 89.5537 9.6862 89.1377 9.2862C88.7217 8.8702 88.1057 8.6622 87.2897 8.6622ZM96.8408 22.0542V5.2542H109.537V8.7102H100.969V11.9022H107.017V15.2622H100.969V18.5982H109.633V22.0542H96.8408Z" fill="black"/>
</svg>
